<svg width="167" height="15" viewBox="0 0 167 15" fill="none" xmlns="http://www.w3.org/2000/svg">
<g style="mix-blend-mode:hard-light">
<path d="M0.810939 9.3H6.27094C6.36427 9.58 6.63761 9.82 7.09094 10.02C7.54427 10.2067 8.15094 10.3533 8.91094 10.46C9.68427 10.5533 10.5776 10.6 11.5909 10.6C12.5909 10.6 13.3776 10.5733 13.9509 10.52C14.5376 10.4533 14.9509 10.3467 15.1909 10.2C15.4309 10.04 15.5509 9.82667 15.5509 9.56C15.5509 9.30667 15.3576 9.11333 14.9709 8.98C14.5843 8.83333 13.8976 8.73333 12.9109 8.68C11.9243 8.62667 10.5376 8.6 8.75094 8.6C7.41761 8.6 6.26427 8.54 5.29094 8.42C4.33094 8.28667 3.53761 8.08667 2.91094 7.82C2.29761 7.54 1.84427 7.19333 1.55094 6.78C1.25761 6.35333 1.11094 5.84667 1.11094 5.26C1.11094 4.24667 1.45094 3.41333 2.13094 2.76C2.82427 2.09333 3.86427 1.6 5.25094 1.28C6.65094 0.946666 8.39761 0.78 10.4909 0.78C13.5576 0.78 15.8976 1.22667 17.5109 2.12C19.1376 3 19.9509 4.27333 19.9509 5.94H14.7709C14.7043 5.5 14.2909 5.16667 13.5309 4.94C12.7709 4.7 11.6909 4.58 10.2909 4.58C8.90427 4.58 7.87094 4.66 7.19094 4.82C6.52427 4.98 6.19094 5.25333 6.19094 5.64C6.19094 5.84 6.28427 6 6.47094 6.12C6.65761 6.24 6.97761 6.34 7.43094 6.42C7.89761 6.48667 8.55094 6.53333 9.39094 6.56C10.2309 6.58667 11.2976 6.6 12.5909 6.6C14.0176 6.6 15.2309 6.67333 16.2309 6.82C17.2309 6.95333 18.0376 7.16 18.6509 7.44C19.2776 7.72 19.7309 8.08 20.0109 8.52C20.2909 8.94667 20.4309 9.45333 20.4309 10.04C20.4309 11.0533 20.1109 11.88 19.4709 12.52C18.8309 13.16 17.8176 13.6333 16.4309 13.94C15.0443 14.2467 13.2309 14.4 10.9909 14.4C9.72427 14.4 8.55761 14.3267 7.49094 14.18C6.43761 14.0333 5.49761 13.82 4.67094 13.54C3.84427 13.2467 3.14427 12.8933 2.57094 12.48C1.99761 12.0533 1.55761 11.58 1.25094 11.06C0.957606 10.5267 0.810939 9.94 0.810939 9.3ZM39.0042 9.74C39.0042 10.7 38.7042 11.52 38.1042 12.2C37.5042 12.88 36.5576 13.4 35.2642 13.76C33.9709 14.12 32.2909 14.3 30.2242 14.3C28.1576 14.3 26.3976 14.1333 24.9442 13.8C23.5042 13.4667 22.4042 12.92 21.6442 12.16C20.8976 11.4 20.5242 10.3867 20.5242 9.12C20.5242 7.85333 20.8976 6.84 21.6442 6.08C22.4042 5.30667 23.5042 4.75333 24.9442 4.42C26.3976 4.07333 28.1576 3.9 30.2242 3.9C32.2909 3.9 33.9642 4.08 35.2442 4.44C36.5242 4.8 37.4642 5.32 38.0642 6C38.6642 6.68 38.9709 7.49333 38.9842 8.44H34.5842C34.3709 7.92 33.8909 7.52 33.1442 7.24C32.3976 6.94667 31.4242 6.8 30.2242 6.8C29.2509 6.8 28.4042 6.87333 27.6842 7.02C26.9642 7.15333 26.4042 7.38667 26.0042 7.72C25.6176 8.05333 25.4242 8.52 25.4242 9.12C25.4242 9.70667 25.6176 10.1667 26.0042 10.5C26.3909 10.8333 26.9442 11.0667 27.6642 11.2C28.3842 11.3333 29.2376 11.4 30.2242 11.4C31.4242 11.4 32.3976 11.26 33.1442 10.98C33.9042 10.6867 34.3909 10.2733 34.6042 9.74H39.0042ZM46.467 14.28C45.027 14.28 43.747 14.08 42.627 13.68C41.507 13.2667 40.6204 12.6733 39.967 11.9C39.327 11.1267 39.007 10.1933 39.007 9.1C39.007 7.95333 39.327 6.99333 39.967 6.22C40.6204 5.44667 41.507 4.86667 42.627 4.48C43.747 4.09333 45.027 3.9 46.467 3.9C48.067 3.9 49.447 4.12 50.607 4.56C51.7804 4.98667 52.6804 5.59333 53.307 6.38C53.947 7.15333 54.267 8.06 54.267 9.1C54.267 9.87333 54.087 10.58 53.727 11.22C53.367 11.8467 52.847 12.3933 52.167 12.86C51.487 13.3133 50.667 13.6667 49.707 13.92C48.747 14.16 47.667 14.28 46.467 14.28ZM48.267 11.24C49.2804 11.24 50.207 11.18 51.047 11.06C51.9004 10.9267 52.5804 10.7067 53.087 10.4C53.607 10.0933 53.867 9.66 53.867 9.1C53.867 8.52667 53.607 8.08667 53.087 7.78C52.5804 7.47333 51.9004 7.26 51.047 7.14C50.207 7.02 49.2804 6.96 48.267 6.96C46.907 6.96 45.8537 7.14 45.107 7.5C44.3604 7.84667 43.987 8.38 43.987 9.1C43.987 9.56667 44.1537 9.96 44.487 10.28C44.8204 10.6 45.307 10.84 45.947 11C46.587 11.16 47.3604 11.24 48.267 11.24ZM53.867 4.2H58.667V14H54.147C54.147 14 54.1204 13.8467 54.067 13.54C54.027 13.2333 53.9804 12.7933 53.927 12.22C53.887 11.6467 53.867 10.9733 53.867 10.2V4.2ZM59.0766 4.2H63.8766V14H59.0766V4.2ZM71.0766 3.9C71.8632 3.9 72.6232 3.98667 73.3566 4.16C74.0899 4.32 74.7432 4.6 75.3166 5C75.9032 5.4 76.3699 5.94667 76.7166 6.64C77.0632 7.33333 77.2366 8.20667 77.2366 9.26V14H72.4366V9.86C72.4366 8.86 72.1766 8.15333 71.6566 7.74C71.1366 7.31333 70.1966 7.1 68.8366 7.1C68.1166 7.1 67.4166 7.18 66.7366 7.34C66.0699 7.5 65.4699 7.69333 64.9366 7.92C64.4032 8.13333 63.9832 8.34667 63.6766 8.56L63.6366 7.8C63.6899 7.56 63.8699 7.22667 64.1766 6.8C64.4966 6.36 64.9566 5.92 65.5566 5.48C66.1566 5.04 66.9099 4.66667 67.8166 4.36C68.7366 4.05333 69.8232 3.9 71.0766 3.9ZM84.1966 3.9C84.9832 3.9 85.7432 3.98667 86.4766 4.16C87.2099 4.32 87.8632 4.6 88.4366 5C89.0232 5.4 89.4899 5.94667 89.8366 6.64C90.1832 7.33333 90.3566 8.20667 90.3566 9.26V14H85.5566V9.86C85.5566 8.86 85.2966 8.15333 84.7766 7.74C84.2566 7.31333 83.3166 7.1 81.9566 7.1C81.2366 7.1 80.5366 7.18 79.8566 7.34C79.1899 7.5 78.5899 7.69333 78.0566 7.92C77.5232 8.13333 77.1032 8.34667 76.7966 8.56L76.7566 7.6C76.8099 7.4 77.0099 7.1 77.3566 6.7C77.7032 6.3 78.1899 5.88667 78.8166 5.46C79.4566 5.03333 80.2232 4.66667 81.1166 4.36C82.0232 4.05333 83.0499 3.9 84.1966 3.9ZM90.5625 9.3H96.0225C96.1158 9.58 96.3892 9.82 96.8425 10.02C97.2958 10.2067 97.9025 10.3533 98.6625 10.46C99.4358 10.5533 100.329 10.6 101.343 10.6C102.343 10.6 103.129 10.5733 103.703 10.52C104.289 10.4533 104.703 10.3467 104.943 10.2C105.183 10.04 105.303 9.82667 105.303 9.56C105.303 9.30667 105.109 9.11333 104.723 8.98C104.336 8.83333 103.649 8.73333 102.663 8.68C101.676 8.62667 100.289 8.6 98.5025 8.6C97.1692 8.6 96.0158 8.54 95.0425 8.42C94.0825 8.28667 93.2892 8.08667 92.6625 7.82C92.0492 7.54 91.5958 7.19333 91.3025 6.78C91.0092 6.35333 90.8625 5.84667 90.8625 5.26C90.8625 4.24667 91.2025 3.41333 91.8825 2.76C92.5758 2.09333 93.6158 1.6 95.0025 1.28C96.4025 0.946666 98.1492 0.78 100.243 0.78C103.309 0.78 105.649 1.22667 107.263 2.12C108.889 3 109.703 4.27333 109.703 5.94H104.523C104.456 5.5 104.043 5.16667 103.283 4.94C102.523 4.7 101.443 4.58 100.043 4.58C98.6558 4.58 97.6225 4.66 96.9425 4.82C96.2758 4.98 95.9425 5.25333 95.9425 5.64C95.9425 5.84 96.0358 6 96.2225 6.12C96.4092 6.24 96.7292 6.34 97.1825 6.42C97.6492 6.48667 98.3025 6.53333 99.1425 6.56C99.9825 6.58667 101.049 6.6 102.343 6.6C103.769 6.6 104.983 6.67333 105.983 6.82C106.983 6.95333 107.789 7.16 108.403 7.44C109.029 7.72 109.483 8.08 109.763 8.52C110.043 8.94667 110.183 9.45333 110.183 10.04C110.183 11.0533 109.863 11.88 109.223 12.52C108.583 13.16 107.569 13.6333 106.183 13.94C104.796 14.2467 102.983 14.4 100.743 14.4C99.4758 14.4 98.3092 14.3267 97.2425 14.18C96.1892 14.0333 95.2492 13.82 94.4225 13.54C93.5958 13.2467 92.8958 12.8933 92.3225 12.48C91.7492 12.0533 91.3092 11.58 91.0025 11.06C90.7092 10.5267 90.5625 9.94 90.5625 9.3ZM128.756 9.74C128.756 10.7 128.456 11.52 127.856 12.2C127.256 12.88 126.309 13.4 125.016 13.76C123.722 14.12 122.042 14.3 119.976 14.3C117.909 14.3 116.149 14.1333 114.696 13.8C113.256 13.4667 112.156 12.92 111.396 12.16C110.649 11.4 110.276 10.3867 110.276 9.12C110.276 7.85333 110.649 6.84 111.396 6.08C112.156 5.30667 113.256 4.75333 114.696 4.42C116.149 4.07333 117.909 3.9 119.976 3.9C122.042 3.9 123.716 4.08 124.996 4.44C126.276 4.8 127.216 5.32 127.816 6C128.416 6.68 128.722 7.49333 128.736 8.44H124.336C124.122 7.92 123.642 7.52 122.896 7.24C122.149 6.94667 121.176 6.8 119.976 6.8C119.002 6.8 118.156 6.87333 117.436 7.02C116.716 7.15333 116.156 7.38667 115.756 7.72C115.369 8.05333 115.176 8.52 115.176 9.12C115.176 9.70667 115.369 10.1667 115.756 10.5C116.142 10.8333 116.696 11.0667 117.416 11.2C118.136 11.3333 118.989 11.4 119.976 11.4C121.176 11.4 122.149 11.26 122.896 10.98C123.656 10.6867 124.142 10.2733 124.356 9.74H128.756ZM136.219 14.28C134.779 14.28 133.499 14.08 132.379 13.68C131.259 13.2667 130.372 12.6733 129.719 11.9C129.079 11.1267 128.759 10.1933 128.759 9.1C128.759 7.95333 129.079 6.99333 129.719 6.22C130.372 5.44667 131.259 4.86667 132.379 4.48C133.499 4.09333 134.779 3.9 136.219 3.9C137.819 3.9 139.199 4.12 140.359 4.56C141.532 4.98667 142.432 5.59333 143.059 6.38C143.699 7.15333 144.019 8.06 144.019 9.1C144.019 9.87333 143.839 10.58 143.479 11.22C143.119 11.8467 142.599 12.3933 141.919 12.86C141.239 13.3133 140.419 13.6667 139.459 13.92C138.499 14.16 137.419 14.28 136.219 14.28ZM138.019 11.24C139.032 11.24 139.959 11.18 140.799 11.06C141.652 10.9267 142.332 10.7067 142.839 10.4C143.359 10.0933 143.619 9.66 143.619 9.1C143.619 8.52667 143.359 8.08667 142.839 7.78C142.332 7.47333 141.652 7.26 140.799 7.14C139.959 7.02 139.032 6.96 138.019 6.96C136.659 6.96 135.605 7.14 134.859 7.5C134.112 7.84667 133.739 8.38 133.739 9.1C133.739 9.56667 133.905 9.96 134.239 10.28C134.572 10.6 135.059 10.84 135.699 11C136.339 11.16 137.112 11.24 138.019 11.24ZM143.619 4.2H148.419V14H143.899C143.899 14 143.872 13.8467 143.819 13.54C143.779 13.2333 143.732 12.7933 143.679 12.22C143.639 11.6467 143.619 10.9733 143.619 10.2V4.2ZM148.828 4.2H153.628V14H148.828V4.2ZM160.828 3.9C161.615 3.9 162.375 3.98667 163.108 4.16C163.841 4.32 164.495 4.6 165.068 5C165.655 5.4 166.121 5.94667 166.468 6.64C166.815 7.33333 166.988 8.20667 166.988 9.26V14H162.188V9.86C162.188 8.86 161.928 8.15333 161.408 7.74C160.888 7.31333 159.948 7.1 158.588 7.1C157.868 7.1 157.168 7.18 156.488 7.34C155.821 7.5 155.221 7.69333 154.688 7.92C154.155 8.13333 153.735 8.34667 153.428 8.56L153.388 7.8C153.441 7.56 153.621 7.22667 153.928 6.8C154.248 6.36 154.708 5.92 155.308 5.48C155.908 5.04 156.661 4.66667 157.568 4.36C158.488 4.05333 159.575 3.9 160.828 3.9Z" fill="white"/>
</g>
</svg>
