<svg width="762" height="92" viewBox="0 0 762 92" fill="none" xmlns="http://www.w3.org/2000/svg">
<path d="M100 45.9809L88.9091 35.355L90.4545 21.2891L74.0455 18.1548L65.4545 6L50 11.5805L34.5455 6L25.9545 18.1548L9.54545 21.2508L11.0909 35.3168L0 45.9809L11.0909 56.6068L9.54545 70.7109L25.9545 73.8452L34.5455 86L50 80.3813L65.4545 85.9618L74.0455 73.807L90.4545 70.6727L88.9091 56.6068L100 45.9809ZM56.9264 65.0922H43.0736V53.4477H56.9264V65.0922ZM56.9264 46.8032H43.0736V24.8696H56.9264V46.8032Z" fill="white"/>
<g style="mix-blend-mode:hard-light">
<path d="M119.063 52.9243H140.062C140.421 54.0011 141.472 54.9241 143.215 55.6933C144.959 56.4112 147.292 56.9753 150.215 57.3855C153.189 57.7445 156.625 57.9239 160.522 57.9239C164.368 57.9239 167.393 57.8214 169.598 57.6163C171.854 57.3599 173.444 56.9496 174.367 56.3856C175.29 55.7702 175.752 54.9498 175.752 53.9242C175.752 52.9499 175.008 52.2064 173.521 51.6936C172.034 51.1295 169.393 50.7449 165.598 50.5398C161.804 50.3347 156.471 50.2321 149.6 50.2321C144.472 50.2321 140.036 50.0014 136.293 49.5399C132.601 49.0271 129.55 48.2579 127.139 47.2323C124.781 46.1555 123.037 44.8222 121.909 43.2326C120.781 41.5917 120.217 39.6431 120.217 37.3868C120.217 33.4896 121.524 30.2847 124.14 27.7721C126.806 25.2081 130.806 23.3108 136.139 22.0801C141.523 20.7982 148.241 20.1572 156.291 20.1572C168.085 20.1572 177.085 21.875 183.29 25.3107C189.546 28.6951 192.674 33.5922 192.674 40.002H172.752C172.495 38.3098 170.906 37.0279 167.983 36.1561C165.06 35.2331 160.906 34.7716 155.522 34.7716C150.189 34.7716 146.215 35.0793 143.6 35.6946C141.036 36.31 139.754 37.3612 139.754 38.8483C139.754 39.6174 140.113 40.2328 140.831 40.6943C141.549 41.1558 142.779 41.5404 144.523 41.8481C146.318 42.1045 148.83 42.2839 152.061 42.3865C155.291 42.489 159.394 42.5403 164.368 42.5403C169.855 42.5403 174.521 42.8224 178.367 43.3864C182.213 43.8992 185.315 44.694 187.674 45.7709C190.084 46.8477 191.828 48.2323 192.904 49.9245C193.981 51.5654 194.52 53.514 194.52 55.7702C194.52 59.6674 193.289 62.8467 190.828 65.3081C188.366 67.7694 184.469 69.5898 179.136 70.7692C173.803 71.9487 166.829 72.5384 158.214 72.5384C153.343 72.5384 148.856 72.2563 144.754 71.6923C140.703 71.1282 137.088 70.3077 133.908 69.2309C130.729 68.1028 128.037 66.7439 125.832 65.1542C123.627 63.5133 121.935 61.6929 120.755 59.693C119.627 57.6419 119.063 55.3856 119.063 52.9243ZM265.951 54.6165C265.951 58.3085 264.797 61.4622 262.489 64.0774C260.182 66.6926 256.541 68.6925 251.567 70.077C246.593 71.4615 240.132 72.1538 232.184 72.1538C224.235 72.1538 217.467 71.5128 211.877 70.2308C206.339 68.9489 202.109 66.8464 199.186 63.9235C196.314 61.0007 194.878 57.1035 194.878 52.232C194.878 47.3605 196.314 43.4633 199.186 40.5405C202.109 37.5663 206.339 35.4382 211.877 34.1563C217.467 32.823 224.235 32.1564 232.184 32.1564C240.132 32.1564 246.567 32.8487 251.49 34.2332C256.413 35.6177 260.028 37.6176 262.336 40.2328C264.643 42.848 265.822 45.976 265.874 49.6168H248.952C248.131 47.6169 246.285 46.0786 243.414 45.0017C240.542 43.8736 236.799 43.3095 232.184 43.3095C228.44 43.3095 225.184 43.5915 222.415 44.1556C219.646 44.6684 217.492 45.5658 215.954 46.8477C214.467 48.1297 213.723 49.9245 213.723 52.232C213.723 54.4883 214.467 56.2574 215.954 57.5393C217.441 58.8213 219.569 59.7187 222.338 60.2315C225.107 60.7443 228.389 61.0007 232.184 61.0007C236.799 61.0007 240.542 60.4622 243.414 59.3854C246.337 58.2572 248.208 56.6676 249.029 54.6165H265.951ZM294.652 72.0769C289.114 72.0769 284.191 71.3077 279.884 69.7693C275.576 68.1797 272.166 65.8978 269.654 62.9236C267.192 59.9494 265.961 56.3599 265.961 52.1551C265.961 47.7451 267.192 44.053 269.654 41.0789C272.166 38.1047 275.576 35.8741 279.884 34.387C284.191 32.8999 289.114 32.1564 294.652 32.1564C300.805 32.1564 306.113 33.0025 310.574 34.6947C315.086 36.3356 318.548 38.6688 320.958 41.6942C323.419 44.6684 324.65 48.1553 324.65 52.1551C324.65 55.1292 323.958 57.847 322.573 60.3084C321.189 62.7185 319.189 64.8209 316.574 66.6157C313.958 68.3591 310.805 69.718 307.113 70.6923C303.421 71.6153 299.267 72.0769 294.652 72.0769ZM301.575 60.3853C305.472 60.3853 309.036 60.1546 312.266 59.693C315.548 59.1803 318.163 58.3342 320.112 57.1548C322.112 55.9753 323.112 54.3088 323.112 52.1551C323.112 49.9501 322.112 48.2579 320.112 47.0785C318.163 45.8991 315.548 45.0786 312.266 44.6171C309.036 44.1556 305.472 43.9249 301.575 43.9249C296.344 43.9249 292.293 44.6171 289.421 46.0016C286.55 47.3349 285.114 49.386 285.114 52.1551C285.114 53.9498 285.755 55.4626 287.037 56.6932C288.319 57.9239 290.191 58.847 292.652 59.4623C295.113 60.0776 298.088 60.3853 301.575 60.3853ZM323.112 33.3102H341.572V71H324.188C324.188 71 324.086 70.4103 323.881 69.2309C323.727 68.0515 323.547 66.3593 323.342 64.1543C323.188 61.9493 323.112 59.3597 323.112 56.3856V33.3102ZM343.147 33.3102H361.607V71H343.147V33.3102ZM389.298 32.1564C392.323 32.1564 395.246 32.4897 398.066 33.1563C400.887 33.7717 403.399 34.8485 405.604 36.3869C407.861 37.9252 409.655 40.0277 410.989 42.6942C412.322 45.3607 412.988 48.7194 412.988 52.7704V71H394.528V55.078C394.528 51.2321 393.528 48.5143 391.528 46.9247C389.528 45.2837 385.913 44.4633 380.683 44.4633C377.914 44.4633 375.222 44.771 372.607 45.3863C370.043 46.0016 367.735 46.7452 365.684 47.6169C363.633 48.4374 362.017 49.2578 360.838 50.0783L360.684 47.1554C360.889 46.2324 361.582 44.9504 362.761 43.3095C363.992 41.6173 365.761 39.9251 368.068 38.2329C370.376 36.5407 373.273 35.1049 376.76 33.9255C380.298 32.7461 384.478 32.1564 389.298 32.1564ZM439.756 32.1564C442.781 32.1564 445.704 32.4897 448.525 33.1563C451.345 33.7717 453.858 34.8485 456.063 36.3869C458.319 37.9252 460.114 40.0277 461.447 42.6942C462.78 45.3607 463.447 48.7194 463.447 52.7704V71H444.986V55.078C444.986 51.2321 443.986 48.5143 441.987 46.9247C439.987 45.2837 436.372 44.4633 431.141 44.4633C428.372 44.4633 425.68 44.771 423.065 45.3863C420.501 46.0016 418.193 46.7452 416.142 47.6169C414.091 48.4374 412.476 49.2578 411.296 50.0783L411.142 46.3862C411.348 45.617 412.117 44.4633 413.45 42.9249C414.783 41.3866 416.655 39.7969 419.065 38.156C421.526 36.5151 424.475 35.1049 427.911 33.9255C431.398 32.7461 435.346 32.1564 439.756 32.1564ZM464.239 52.9243H485.237C485.596 54.0011 486.648 54.9241 488.391 55.6933C490.134 56.4112 492.468 56.9753 495.391 57.3855C498.365 57.7445 501.8 57.9239 505.698 57.9239C509.543 57.9239 512.569 57.8214 514.774 57.6163C517.03 57.3599 518.62 56.9496 519.543 56.3856C520.466 55.7702 520.927 54.9498 520.927 53.9242C520.927 52.9499 520.184 52.2064 518.697 51.6936C517.21 51.1295 514.569 50.7449 510.774 50.5398C506.98 50.3347 501.647 50.2321 494.775 50.2321C489.647 50.2321 485.212 50.0014 481.468 49.5399C477.776 49.0271 474.725 48.2579 472.315 47.2323C469.956 46.1555 468.213 44.8222 467.085 43.2326C465.957 41.5917 465.393 39.6431 465.393 37.3868C465.393 33.4896 466.7 30.2847 469.315 27.7721C471.982 25.2081 475.982 23.3108 481.315 22.0801C486.699 20.7982 493.416 20.1572 501.467 20.1572C513.261 20.1572 522.261 21.875 528.465 25.3107C534.721 28.6951 537.849 33.5922 537.849 40.002H517.928C517.671 38.3098 516.081 37.0279 513.159 36.1561C510.236 35.2331 506.082 34.7716 500.698 34.7716C495.365 34.7716 491.391 35.0793 488.776 35.6946C486.212 36.31 484.93 37.3612 484.93 38.8483C484.93 39.6174 485.289 40.2328 486.007 40.6943C486.724 41.1558 487.955 41.5404 489.699 41.8481C491.493 42.1045 494.006 42.2839 497.237 42.3865C500.467 42.489 504.569 42.5403 509.543 42.5403C515.03 42.5403 519.697 42.8224 523.543 43.3864C527.388 43.8992 530.491 44.694 532.85 45.7709C535.26 46.8477 537.003 48.2323 538.08 49.9245C539.157 51.5654 539.695 53.514 539.695 55.7702C539.695 59.6674 538.465 62.8467 536.003 65.3081C533.542 67.7694 529.645 69.5898 524.312 70.7692C518.979 71.9487 512.005 72.5384 503.39 72.5384C498.519 72.5384 494.032 72.2563 489.929 71.6923C485.878 71.1282 482.263 70.3077 479.084 69.2309C475.905 68.1028 473.213 66.7439 471.008 65.1542C468.803 63.5133 467.11 61.6929 465.931 59.693C464.803 57.6419 464.239 55.3856 464.239 52.9243ZM611.126 54.6165C611.126 58.3085 609.973 61.4622 607.665 64.0774C605.357 66.6926 601.717 68.6925 596.743 70.077C591.769 71.4615 585.308 72.1538 577.359 72.1538C569.411 72.1538 562.642 71.5128 557.053 70.2308C551.515 68.9489 547.284 66.8464 544.361 63.9235C541.49 61.0007 540.054 57.1035 540.054 52.232C540.054 47.3605 541.49 43.4633 544.361 40.5405C547.284 37.5663 551.515 35.4382 557.053 34.1563C562.642 32.823 569.411 32.1564 577.359 32.1564C585.308 32.1564 591.743 32.8487 596.666 34.2332C601.588 35.6177 605.204 37.6176 607.511 40.2328C609.819 42.848 610.998 45.976 611.049 49.6168H594.127C593.307 47.6169 591.461 46.0786 588.589 45.0017C585.718 43.8736 581.974 43.3095 577.359 43.3095C573.616 43.3095 570.36 43.5915 567.591 44.1556C564.822 44.6684 562.668 45.5658 561.13 46.8477C559.643 48.1297 558.899 49.9245 558.899 52.232C558.899 54.4883 559.643 56.2574 561.13 57.5393C562.617 58.8213 564.745 59.7187 567.514 60.2315C570.283 60.7443 573.565 61.0007 577.359 61.0007C581.974 61.0007 585.718 60.4622 588.589 59.3854C591.512 58.2572 593.384 56.6676 594.204 54.6165H611.126ZM639.828 72.0769C634.289 72.0769 629.367 71.3077 625.059 69.7693C620.752 68.1797 617.342 65.8978 614.829 62.9236C612.368 59.9494 611.137 56.3599 611.137 52.1551C611.137 47.7451 612.368 44.053 614.829 41.0789C617.342 38.1047 620.752 35.8741 625.059 34.387C629.367 32.8999 634.289 32.1564 639.828 32.1564C645.981 32.1564 651.288 33.0025 655.75 34.6947C660.262 36.3356 663.723 38.6688 666.134 41.6942C668.595 44.6684 669.826 48.1553 669.826 52.1551C669.826 55.1292 669.133 57.847 667.749 60.3084C666.364 62.7185 664.364 64.8209 661.749 66.6157C659.134 68.3591 655.98 69.718 652.288 70.6923C648.596 71.6153 644.443 72.0769 639.828 72.0769ZM646.75 60.3853C650.647 60.3853 654.211 60.1546 657.442 59.693C660.724 59.1803 663.339 58.3342 665.287 57.1548C667.287 55.9753 668.287 54.3088 668.287 52.1551C668.287 49.9501 667.287 48.2579 665.287 47.0785C663.339 45.8991 660.724 45.0786 657.442 44.6171C654.211 44.1556 650.647 43.9249 646.75 43.9249C641.52 43.9249 637.469 44.6171 634.597 46.0016C631.726 47.3349 630.29 49.386 630.29 52.1551C630.29 53.9498 630.931 55.4626 632.213 56.6932C633.495 57.9239 635.366 58.847 637.828 59.4623C640.289 60.0776 643.263 60.3853 646.75 60.3853ZM668.287 33.3102H686.748V71H669.364C669.364 71 669.262 70.4103 669.056 69.2309C668.903 68.0515 668.723 66.3593 668.518 64.1543C668.364 61.9493 668.287 59.3597 668.287 56.3856V33.3102ZM688.323 33.3102H706.783V71H688.323V33.3102ZM734.473 32.1564C737.499 32.1564 740.422 32.4897 743.242 33.1563C746.062 33.7717 748.575 34.8485 750.78 36.3869C753.036 37.9252 754.831 40.0277 756.164 42.6942C757.498 45.3607 758.164 48.7194 758.164 52.7704V71H739.704V55.078C739.704 51.2321 738.704 48.5143 736.704 46.9247C734.704 45.2837 731.089 44.4633 725.859 44.4633C723.09 44.4633 720.397 44.771 717.782 45.3863C715.218 46.0016 712.911 46.7452 710.86 47.6169C708.808 48.4374 707.193 49.2578 706.014 50.0783L705.86 47.1554C706.065 46.2324 706.757 44.9504 707.937 43.3095C709.167 41.6173 710.937 39.9251 713.244 38.2329C715.552 36.5407 718.449 35.1049 721.936 33.9255C725.474 32.7461 729.653 32.1564 734.473 32.1564Z" fill="white"/>
</g>
</svg>
